<svg width="232" height="194" viewBox="0 0 232 194" fill="none" xmlns="http://www.w3.org/2000/svg">
<path d="M99.753 0.246338C102.156 1.42722 107.879 5.33407 110.355 6.91872C117.346 11.3231 124.309 15.7718 131.245 20.2646L149.822 32.0996C152.064 33.5267 157.677 36.9365 159.337 38.4016C157.569 40.0142 148.937 45.2335 146.402 46.8491L134.892 54.1868C132.652 55.623 129.747 57.601 127.462 58.8187C125.707 57.9799 120.808 54.7603 118.933 53.5855C112.58 49.5302 106.197 45.5224 99.7839 41.5622C91.0211 47.2893 80.1462 53.9375 71.1751 59.3232C70.7924 61.7747 70.9512 68.4784 70.9543 71.214L70.966 94.4227C80.5258 100.27 90.1909 106.741 99.7762 112.422L125.816 96.2098C124.068 93.9789 119.787 89.8985 117.615 87.465C128.829 87.3283 140.191 87.4592 151.424 87.4363C153.834 87.3908 156.345 87.4179 158.763 87.4123C158.814 97.3393 158.801 107.267 158.726 117.193C157.465 118.342 153.241 120.891 151.632 121.891L139.348 129.5C126.227 137.666 112.954 146.291 99.7762 154.295C95.7572 152.153 90.3202 148.537 86.3948 146.077L64.1902 132.26L45.6102 120.686C42.7475 118.904 37.4798 115.835 34.9888 113.816C34.8151 111.027 34.9297 107.027 34.9291 104.17L34.9583 84.7501L34.9423 65.666C34.9344 62.133 34.8049 57.7321 35.0251 54.2626C42.8349 54.3143 50.645 54.3119 58.4548 54.2555C58.3767 49.7919 58.3449 43.8484 58.6082 39.4489C63.2794 39.2545 68.0527 39.6758 72.5808 39.3545C72.7957 32.2543 72.6671 24.4717 72.6379 17.328C81.7103 11.7474 90.6063 5.74807 99.753 0.246338ZM47.3372 80.5586C47.7538 85.7897 47.2298 93.1338 47.0373 98.5267C48.7183 98.3962 43.4226 89.7539 45.0807 89.4881C45.086 91.5999 58.5007 80.1699 58.616 82.2848C60.0544 83.9928 68.1311 109.418 70.1034 110.629C83.662 118.95 125.721 106.569 139.348 114.771C146.051 111.222 113.297 125.689 119.831 121.653C128.021 116.595 143.706 110.695 150.176 103.458C159.193 100.976 154.08 116.767 154.18 116.17C145.681 123.58 126.043 115.669 116.548 121.62C111.2 124.973 105.173 129.113 99.7618 132.189L71.7522 114.771C65.8186 111.081 59.7282 107.433 53.9772 103.458C55.5847 102.603 57.2021 101.768 58.8288 100.95C58.6456 95.0376 58.2685 86.371 58.5748 80.4708C60.6219 81.1297 58.772 66.1941 60.7607 66.9108C60.1175 65.5573 63.6266 79.9724 62.8701 78.6864C59.5623 73.064 50.0815 107.987 47.0373 102.213C45.1575 104.996 43.6092 91.4609 41.8778 94.4227C39.7935 97.988 41.4775 84.5621 40.8769 82.2848C43.028 81.5559 45.0858 80.9839 47.3372 80.5586ZM78.6546 23.2864C79.7977 24.2775 82.9694 26.6272 83.2 27.911C83.1049 28.1074 83.0097 28.3039 82.9146 28.5003C80.3274 30.1228 77.5521 31.5334 74.9779 33.2059C74.9669 35.6394 75.8104 20.5531 75.9087 22.9384L108.738 20.9352C110.931 19.4854 85.5111 34.1376 87.6075 33.3416C87.8401 35.5974 85.0582 26.2675 85.5174 28.5003C88.3415 23.3057 95.1339 28.1048 97.6112 22.9384L97.4653 22.6157C96.8018 22.5288 96.9401 22.5044 96.2971 22.5808C90.5018 22.9704 84.0474 22.8537 78.6546 23.2864ZM74.4127 41.5622C69.9797 41.6471 65.2462 41.794 60.8139 41.6347C61.0927 45.5098 60.4626 37.5045 60.7607 41.1467C62.5224 38.1874 67.6461 42.7817 70.3676 40.6569C72.8108 38.7189 75.4239 42.1264 74.4127 41.5622ZM140.009 38.8956C140.748 38.6287 123.138 40.7388 123.459 40.167C119.394 39.7399 132.458 37.9002 128.517 37.334C127.108 37.1316 123.301 34.4801 121.873 33.669C116.332 30.5212 148.693 41.6552 143.178 40.167C149.868 46.2983 124.062 32.9252 131.549 38.2076C132.526 38.8967 126.444 38.7069 127.592 39.1249C131.11 39.6085 136.511 39.2385 140.009 38.8956Z" fill="url(#paint0_linear_38_577)"/>
<path d="M231.804 65.5444L231.996 65.7262C232.187 66.732 223.931 103.656 222.976 108.287C220.227 105.77 217.19 101.81 214.88 98.8384C213.439 100.123 210.319 103.789 208.815 105.437C205.233 109.422 201.535 113.3 197.725 117.066C180.367 134.305 156.265 154.32 134.677 166.064C134.624 163.74 134.611 161.418 134.633 159.093C132.13 159.08 129.632 159.087 127.132 158.975C127.092 161.598 127.108 164.218 127.178 166.838C129.369 167.04 131.356 167.069 133.535 166.793C130.904 168.567 127.53 170.295 124.676 171.811C113.027 178.011 100.843 183.138 88.2719 187.129C88.1984 184.84 88.1668 182.551 88.177 180.262C85.0295 180.88 81.8295 181.589 78.6864 182.253C78.7057 185.271 78.7486 188.266 78.6254 191.28C76.3586 191.835 71.6026 192.437 69.2074 192.713C69.1384 190.235 68.924 186.135 69.1351 183.811L64.7244 184.362C63.0353 184.491 61.425 184.582 59.7529 184.882C59.8439 181.689 59.8266 178.329 59.866 175.122C62.9495 174.931 66.0283 174.671 69.0999 174.342C68.9883 171.48 69.0519 168.055 69.0058 165.135C71.5488 164.509 76.1061 163.924 78.8296 163.491C78.9342 166.502 78.8719 169.862 78.8758 172.902C81.5688 171.986 85.4966 171.053 88.296 170.473C88.177 167.871 88.2425 164.74 88.2343 162.098C89.7318 161.424 92.7577 160.542 94.4132 159.98C97.5093 158.9 100.593 157.787 103.665 156.64C109.247 154.558 113.825 152.227 119.189 150.009C119.151 152.296 119.167 154.582 119.235 156.869L126.366 156.831C126.289 154.409 126.358 152.193 126.426 149.776C123.658 149.544 122.211 149.56 119.45 149.842C152.854 133.538 176.595 114.045 201.958 87.1192C198.794 84.9956 194.917 82.7579 191.605 80.6314C202.347 77.0919 213.01 72.3719 223.712 68.6529C226.294 67.7553 229.341 66.6613 231.804 65.5444ZM69.1567 174.458C69.1432 175.855 68.9052 182.571 69.4189 183.511L69.8508 183.642C72.8485 182.991 75.5664 182.613 78.5838 182.122C78.5393 180.095 78.659 174.88 78.432 173.249C78.0014 173.135 78.166 173.111 77.939 173.166C75.2168 173.54 71.759 174.191 69.1567 174.458ZM166.636 126.636C168.355 126.629 169.7 126.622 171.404 126.456L171.546 121.694C169.946 121.634 168.28 121.545 166.687 121.545C166.51 123.454 166.479 124.705 166.636 126.636ZM189.855 111.147C188.578 112.023 185.79 114.703 184.525 115.851C182.334 117.836 179.958 119.887 177.849 121.929C178.659 122.302 178.788 122.118 179.825 121.825C182.414 119.331 185.02 117.25 187.594 114.584C187.957 112.982 189.025 113.058 189.855 111.147ZM96.3816 175.838C96.2933 174.306 96.3955 170.015 96.2076 168.993C95.7461 168.829 95.9353 168.829 95.6558 168.858C93.1874 169.653 91.0965 170.104 88.5677 170.649C88.5529 172.102 88.2788 177.138 89.0023 177.929L89.765 177.982C91.9517 177.093 94.1223 176.5 96.3816 175.838ZM113.925 171.74L117.629 171.753L117.631 167.982C116.405 167.98 115.113 167.958 113.894 167.987C113.894 169.218 113.867 170.518 113.925 171.74ZM150.603 148.26C152.745 148.331 154.887 148.316 157.027 148.216C157.035 147.127 157.175 142.489 156.834 141.856C156.122 141.787 155.464 141.72 154.748 141.689C153.807 141.711 152.685 141.64 151.73 141.607L150.878 141.785C150.225 142.84 150.566 146.802 150.603 148.26ZM109.684 159.304C108.118 159.22 106.382 159.087 104.831 159.129C104.824 160.802 104.768 162.778 104.882 164.418L109.753 164.393L109.684 159.304ZM135.677 142.238C135.615 144.149 135.531 145.664 135.737 147.578L141.275 147.522C141.262 145.8 141.286 143.909 141.224 142.205C139.377 142.165 137.527 142.176 135.677 142.238Z" fill="url(#paint1_linear_38_577)"/>
<path d="M209.221 91.0427L209.467 91.3612C208.579 92.23 207.823 93.1598 206.995 94.0891C201.479 100.29 195.99 106.538 190.042 112.331C189.339 113.016 188.38 114.029 187.593 114.584C187.956 112.982 189.024 113.058 189.854 111.147L189.757 111.019C190.144 110.417 194.142 106.603 194.899 105.862C198.025 102.786 201.11 99.6691 204.154 96.5109C205.659 94.952 207.942 92.6923 209.221 91.0427Z" fill="url(#paint2_linear_38_577)"/>
<path d="M169.629 128.929C170.403 128.062 177.039 122.329 177.848 121.929C178.658 122.302 178.787 122.118 179.824 121.824C178.623 123.078 172.443 128.496 170.992 129.393C169.695 129.636 169.33 130.531 168.657 130.504C168.996 129.871 169.221 129.524 169.629 128.929Z" fill="url(#paint3_linear_38_577)"/>
<path d="M177.85 121.929C179.958 119.887 182.335 117.836 184.525 115.85C185.791 114.703 188.579 112.022 189.855 111.147C189.025 113.058 187.957 112.982 187.594 114.584C185.021 117.25 182.414 119.331 179.825 121.824C178.788 122.118 178.659 122.302 177.85 121.929Z" fill="url(#paint4_linear_38_577)"/>
<path d="M157.312 138.313C159.131 137.084 160.859 135.693 162.713 134.535C163.008 134.555 163.3 134.575 163.592 134.593L164.229 134.698C163.025 135.829 160.501 137.835 159.105 138.838C158.29 138.393 158.195 138.273 157.312 138.313Z" fill="url(#paint5_linear_38_577)"/>
<path d="M157.313 138.313C158.196 138.273 158.291 138.393 159.105 138.838C158.041 139.595 155.162 141.058 154.748 141.689C153.808 141.711 152.686 141.64 151.73 141.606C153.147 141.469 153.313 141.675 154.406 140.613C155.282 139.762 156.302 138.998 157.313 138.313Z" fill="url(#paint6_linear_38_577)"/>
<path d="M169.629 128.929C169.222 129.525 168.996 129.871 168.658 130.505C169.33 130.531 169.695 129.636 170.992 129.393C168.742 131.482 166.713 132.924 164.228 134.698L163.591 134.593C164.452 134.147 165.859 132.813 166.383 132C167.301 130.58 168.297 129.916 169.629 128.929Z" fill="url(#paint7_linear_38_577)"/>
<path d="M213.712 86.1423C212.869 87.4892 210.654 90.2916 209.468 91.361L209.223 91.0425C210.296 89.6552 212.449 87.3777 213.712 86.1423Z" fill="url(#paint8_linear_38_577)"/>
<path d="M15.5229 102.362C15.6762 103.986 13.4377 111.485 12.9056 113.55C9.07492 128.418 9.83673 144.431 21.8094 155.482C28.1169 161.304 34.3217 163.298 42.486 165.371C42.6356 167.442 42.628 169.258 42.6238 171.327C39.5058 171.135 36.979 171.064 33.9 170.378C27.9494 168.978 23.4509 167.293 18.3462 163.736C12.4111 159.596 7.00437 152.3 5.7777 145.04C4.04921 144.982 2.12689 145.051 0.383132 145.076C0.139967 129.469 7.10614 115.028 15.5229 102.362Z" fill="url(#paint9_linear_38_577)"/>
<path d="M54.5935 21.3115C59.242 21.452 64.2509 21.3073 68.9542 21.3251C68.9952 26.1657 68.9974 31.0068 68.9609 35.8476C64.2128 35.9074 59.3783 35.8736 54.6238 35.8807C54.3486 32.1634 54.5156 25.1386 54.5935 21.3115Z" fill="url(#paint10_linear_38_577)"/>
<path d="M41.782 37.7651C46.1634 37.8322 50.5331 37.7611 54.947 37.8407C55.1249 42.0251 55.0081 46.8608 54.9935 51.0884C50.9647 51.1526 45.7111 51.2033 41.7599 50.9584C41.7169 46.5606 41.7244 42.1627 41.782 37.7651Z" fill="url(#paint11_linear_38_577)"/>
<path d="M29.3355 25.8322C32.7507 25.65 36.2305 25.7285 39.6494 25.7902C39.7089 29.1946 39.6872 32.6002 39.5846 36.0035C36.7735 36.1884 32.4863 35.9782 29.3729 36.0619C29.2229 33.0217 29.2269 28.8782 29.3355 25.8322Z" fill="url(#paint12_linear_38_577)"/>
<path d="M41.7417 8.4935C44.7166 8.26661 48.8039 8.32373 51.794 8.47928C51.5843 11.2786 51.6785 15.3821 51.6757 18.2479L41.8278 18.2172C41.6441 15.2519 41.7391 11.5193 41.7417 8.4935Z" fill="url(#paint13_linear_38_577)"/>
<path d="M55.13 166.1C56.66 165.993 58.2688 166 59.8088 165.982C59.5738 168.2 59.7364 172.793 59.7714 175.131C58.1526 175.28 56.4852 175.275 54.8561 175.297L50.156 175.251C49.9332 172.653 49.8122 168.715 50.1516 166.146C51.8111 166.173 53.471 166.157 55.13 166.1Z" fill="url(#paint14_linear_38_577)"/>
<path d="M57.704 185.206C58.5543 185.12 58.6515 185.133 59.5113 185.215C59.6405 186.997 59.4095 191.497 59.3624 193.475C57.4277 193.82 54.4572 193.909 52.4756 193.986C51.8019 194.013 51.593 194.004 50.9221 193.931C50.334 193.262 50.602 186.893 50.6155 185.511L57.704 185.206Z" fill="url(#paint15_linear_38_577)"/>
<path d="M26.6783 171.467C29.2259 171.478 31.7735 171.509 34.3206 171.553C34.5105 173.487 34.4436 177.004 34.4567 179.075C31.8726 179.093 29.2885 179.058 26.7057 178.973C26.4123 176.48 26.403 173.962 26.6783 171.467Z" fill="url(#paint16_linear_38_577)"/>
<path d="M47.5697 175.84C47.83 175.862 48.1526 175.966 48.417 176.033C49.1405 177.217 48.715 181.475 48.6362 183.024C46.7834 183.131 44.8564 183.075 42.9952 183.053C42.1566 183.008 42.4905 183.157 41.8906 182.757C41.16 180.906 41.5393 177.98 41.6636 175.915C43.7245 176.008 45.5169 175.924 47.5697 175.84Z" fill="url(#paint17_linear_38_577)"/>
<path d="M28.0434 0.0177814L35.0421 0C35.1125 2.35643 35.1087 4.71441 35.031 7.07062C33.2331 7.18862 29.9573 7.08883 28.0529 7.08417C27.8359 4.73218 27.9228 2.37132 28.0434 0.0177814Z" fill="url(#paint18_linear_38_577)"/>
<path d="M33.2979 186.224C35.4702 186.22 37.5786 186.193 39.7494 186.346C39.8078 188.384 39.9448 190.74 39.7472 192.744C38.1112 192.955 35.0173 192.78 33.3578 192.675C33.3049 190.553 33.3162 188.353 33.2979 186.224Z" fill="url(#paint19_linear_38_577)"/>
<path d="M6.96243 158.071C8.05059 157.986 9.44785 158.135 10.561 158.213C10.6562 159.895 11.1876 163.371 9.99215 164.506L8.8146 164.437C7.11576 164.431 6.10991 164.402 4.44736 164.68C4.34314 162.48 4.33053 160.371 4.31836 158.173L6.96243 158.071Z" fill="url(#paint20_linear_38_577)"/>
<path d="M15.4017 178.653C17.2452 178.706 19.2994 178.66 21.1602 178.66C21.2084 180.588 21.2166 182.517 21.1845 184.446C19.3306 184.364 17.285 184.426 15.4154 184.446C15.3556 182.571 15.3983 180.539 15.4017 178.653Z" fill="url(#paint21_linear_38_577)"/>
<path d="M14.0683 167.569C15.8787 167.493 17.2182 167.522 19.0341 167.604C19.0281 169.273 19.0108 170.94 18.983 172.609C17.366 172.635 15.7289 172.629 14.1099 172.635C14.032 170.971 14.0626 169.24 14.0683 167.569Z" fill="url(#paint22_linear_38_577)"/>
<path d="M1.00234 149.16C4.82528 148.862 5.18815 150.242 4.18362 153.722L3.70901 153.938L0.174154 153.975C0.134106 152.682 -0.209955 150.791 0.196059 149.616C0.323726 149.247 0.488347 149.324 1.00234 149.16Z" fill="url(#paint23_linear_38_577)"/>
<defs>
<linearGradient id="paint0_linear_38_577" x1="67.7411" y1="32.7333" x2="145.421" y2="110.144" gradientUnits="userSpaceOnUse">
<stop stop-color="#0FDCDB"/>
<stop offset="1" stop-color="#188AB5"/>
</linearGradient>
<linearGradient id="paint1_linear_38_577" x1="105.22" y1="92.3627" x2="161.734" y2="186.791" gradientUnits="userSpaceOnUse">
<stop stop-color="#0FDCDB"/>
<stop offset="1" stop-color="#188AB5"/>
</linearGradient>
<linearGradient id="paint2_linear_38_577" x1="193.367" y1="96.0073" x2="205.128" y2="109.488" gradientUnits="userSpaceOnUse">
<stop stop-color="#0FDCDB"/>
<stop offset="1" stop-color="#188AB5"/>
</linearGradient>
<linearGradient id="paint3_linear_38_577" x1="171.605" y1="123.655" x2="175.554" y2="129.921" gradientUnits="userSpaceOnUse">
<stop stop-color="#0FDCDB"/>
<stop offset="1" stop-color="#188AB5"/>
</linearGradient>
<linearGradient id="paint4_linear_38_577" x1="181.019" y1="113.465" x2="186.323" y2="120.613" gradientUnits="userSpaceOnUse">
<stop stop-color="#0FDCDB"/>
<stop offset="1" stop-color="#188AB5"/>
</linearGradient>
<linearGradient id="paint5_linear_38_577" x1="159.138" y1="135.443" x2="160.882" y2="138.902" gradientUnits="userSpaceOnUse">
<stop stop-color="#0FDCDB"/>
<stop offset="1" stop-color="#188AB5"/>
</linearGradient>
<linearGradient id="paint6_linear_38_577" x1="153.677" y1="139.02" x2="154.794" y2="142.02" gradientUnits="userSpaceOnUse">
<stop stop-color="#0FDCDB"/>
<stop offset="1" stop-color="#188AB5"/>
</linearGradient>
<linearGradient id="paint7_linear_38_577" x1="165.544" y1="130.146" x2="168.172" y2="134.304" gradientUnits="userSpaceOnUse">
<stop stop-color="#0FDCDB"/>
<stop offset="1" stop-color="#188AB5"/>
</linearGradient>
<linearGradient id="paint8_linear_38_577" x1="210.408" y1="87.2429" x2="213.035" y2="90.0306" gradientUnits="userSpaceOnUse">
<stop stop-color="#0FDCDB"/>
<stop offset="1" stop-color="#188AB5"/>
</linearGradient>
<linearGradient id="paint9_linear_38_577" x1="11.529" y1="116.906" x2="44.9841" y2="142.188" gradientUnits="userSpaceOnUse">
<stop stop-color="#0FDCDB"/>
<stop offset="1" stop-color="#188AB5"/>
</linearGradient>
<linearGradient id="paint10_linear_38_577" x1="58.3031" y1="24.3847" x2="65.4981" y2="33.2255" gradientUnits="userSpaceOnUse">
<stop stop-color="#0FDCDB"/>
<stop offset="1" stop-color="#188AB5"/>
</linearGradient>
<linearGradient id="paint11_linear_38_577" x1="45.2463" y1="40.586" x2="51.8519" y2="48.6956" gradientUnits="userSpaceOnUse">
<stop stop-color="#0FDCDB"/>
<stop offset="1" stop-color="#188AB5"/>
</linearGradient>
<linearGradient id="paint12_linear_38_577" x1="32.0087" y1="27.9047" x2="37.1148" y2="34.2414" gradientUnits="userSpaceOnUse">
<stop stop-color="#0FDCDB"/>
<stop offset="1" stop-color="#188AB5"/>
</linearGradient>
<linearGradient id="paint13_linear_38_577" x1="44.3754" y1="10.4314" x2="49.2439" y2="16.5426" gradientUnits="userSpaceOnUse">
<stop stop-color="#0FDCDB"/>
<stop offset="1" stop-color="#188AB5"/>
</linearGradient>
<linearGradient id="paint14_linear_38_577" x1="52.5453" y1="167.946" x2="57.0794" y2="173.872" gradientUnits="userSpaceOnUse">
<stop stop-color="#0FDCDB"/>
<stop offset="1" stop-color="#188AB5"/>
</linearGradient>
<linearGradient id="paint15_linear_38_577" x1="52.9205" y1="187.014" x2="57.2718" y2="192.475" gradientUnits="userSpaceOnUse">
<stop stop-color="#0FDCDB"/>
<stop offset="1" stop-color="#188AB5"/>
</linearGradient>
<linearGradient id="paint16_linear_38_577" x1="28.5848" y1="173.072" x2="32.3005" y2="177.876" gradientUnits="userSpaceOnUse">
<stop stop-color="#0FDCDB"/>
<stop offset="1" stop-color="#188AB5"/>
</linearGradient>
<linearGradient id="paint17_linear_38_577" x1="43.4016" y1="177.368" x2="46.9635" y2="181.841" gradientUnits="userSpaceOnUse">
<stop stop-color="#0FDCDB"/>
<stop offset="1" stop-color="#188AB5"/>
</linearGradient>
<linearGradient id="paint18_linear_38_577" x1="29.8131" y1="1.50321" x2="33.3251" y2="5.86254" gradientUnits="userSpaceOnUse">
<stop stop-color="#0FDCDB"/>
<stop offset="1" stop-color="#188AB5"/>
</linearGradient>
<linearGradient id="paint19_linear_38_577" x1="35.0274" y1="187.616" x2="38.3024" y2="191.613" gradientUnits="userSpaceOnUse">
<stop stop-color="#0FDCDB"/>
<stop offset="1" stop-color="#188AB5"/>
</linearGradient>
<linearGradient id="paint20_linear_38_577" x1="6.01889" y1="159.445" x2="9.31028" y2="163.388" gradientUnits="userSpaceOnUse">
<stop stop-color="#0FDCDB"/>
<stop offset="1" stop-color="#188AB5"/>
</linearGradient>
<linearGradient id="paint21_linear_38_577" x1="16.92" y1="179.875" x2="19.7754" y2="183.413" gradientUnits="userSpaceOnUse">
<stop stop-color="#0FDCDB"/>
<stop offset="1" stop-color="#188AB5"/>
</linearGradient>
<linearGradient id="paint22_linear_38_577" x1="15.3712" y1="168.603" x2="17.9055" y2="171.647" gradientUnits="userSpaceOnUse">
<stop stop-color="#0FDCDB"/>
<stop offset="1" stop-color="#188AB5"/>
</linearGradient>
<linearGradient id="paint23_linear_38_577" x1="1.23059" y1="150.144" x2="3.64398" y2="153.003" gradientUnits="userSpaceOnUse">
<stop stop-color="#0FDCDB"/>
<stop offset="1" stop-color="#188AB5"/>
</linearGradient>
</defs>
</svg>
